<svg width="43" height="43" viewBox="0 0 43 43" fill="none" xmlns="http://www.w3.org/2000/svg">
<path d="M18.3343 5.84067C18.7512 7.59859 19.9898 8.64778 21.6474 8.64778C23.2988 8.64778 24.6639 7.48066 24.9681 5.80907C25.0732 5.22943 25.2846 3.95892 25.3325 3.30197C25.391 2.47396 25.0589 1.67454 24.3965 1.05072C23.6879 0.382585 22.6863 0 21.6478 0C20.6093 0 19.6073 0.383328 18.8995 1.05072C18.2371 1.67498 17.9055 2.47436 17.9648 3.30273C18.0118 3.95376 18.1838 5.2038 18.3343 5.84067ZM20.0062 1.9698C20.4286 1.57122 21.0271 1.34256 21.6474 1.34256C22.2682 1.34256 22.8671 1.57122 23.29 1.9698C23.6624 2.32041 23.8494 2.76398 23.8174 3.21754C23.7767 3.77896 23.5871 4.94833 23.4694 5.59595C23.3148 6.44665 22.6911 7.30552 21.6474 7.30552C20.4164 7.30552 19.9734 6.21502 19.8196 5.56512C19.6872 5.00703 19.522 3.8072 19.4792 3.21716C19.4472 2.76356 19.6342 2.32036 20.0062 1.9698Z" fill="#C0392B"/>
<path d="M39.0904 30.6074L31.5335 23.867L30.1882 17.0685L39.0912 9.12747L42.7545 12.322L43 2.50488L31.8983 2.85252L35.5464 6.03627L28.9646 11.9082C28.1215 10.3833 26.3398 9.36241 24.3325 9.36241L18.6767 9.36204C16.7248 9.36204 14.9929 10.328 14.1228 11.7862L7.48637 5.96413L11.0975 2.72346L0.000108357 2.50521L0.393078 12.3261L3.99203 9.09772L12.8577 16.8759L11.4164 24.1246L3.99192 30.6379L0.39297 27.4095L0 37.2305L11.0974 37.0122L7.48626 33.7715L13.4553 28.5346L13.5793 28.5599C13.9735 28.6406 14.3728 28.4305 14.4808 28.0843L14.6729 27.4668L15.6139 26.641L14.7166 42.2947C14.7057 42.4783 14.7809 42.6576 14.9247 42.791C15.0676 42.9245 15.2668 43 15.4748 43H18.6203C18.9931 43 19.3104 42.7602 19.3692 42.4345L21.5052 30.6062L23.6403 42.4345C23.6988 42.7605 24.0165 43 24.3901 43H27.5382C27.7462 43 27.9446 42.9249 28.0883 42.791C28.2312 42.6576 28.306 42.4783 28.2964 42.2947L27.3864 26.4192L28.2384 27.1799L28.5183 28.0831C28.6255 28.4303 29.0235 28.6411 29.4202 28.5601L29.7182 28.4995L35.5465 33.6984L31.8983 36.8829L43 37.2306L42.7537 27.4116L39.0904 30.6074ZM25.0385 41.6572L22.2549 26.2443C22.1964 25.9182 21.8787 25.6788 21.5059 25.6788C21.1331 25.6788 20.8154 25.9186 20.7561 26.2443L17.9729 41.6572H16.2728L17.6354 17.8949C17.6547 17.5528 17.3803 17.2528 16.9978 17.1981C16.6162 17.1468 16.248 17.3532 16.1459 17.6826L13.2101 27.1075L12.3969 26.9421L15.1128 13.2872C15.4347 11.7907 16.9331 10.705 18.6764 10.705H24.3323C26.0719 10.705 27.5711 11.7874 27.8939 13.2675L30.6006 26.9424L29.7898 27.1075L26.8658 17.6587C26.7641 17.3282 26.3976 17.1155 26.0143 17.1728C25.6314 17.227 25.357 17.5271 25.3763 17.8695L26.7402 41.6565L25.0385 41.6572Z" fill="#C0392B"/>
</svg>
