<svg width="33" height="30" viewBox="0 0 33 30" fill="none" xmlns="http://www.w3.org/2000/svg">
<path d="M14.3006 26.3084H23.5939V18.2108H24.507V14.4111H20.4834C20.7878 14.2797 21.047 14.1318 21.2237 13.9638C21.7137 13.4985 21.9834 12.8801 21.9834 12.222C21.9834 11.564 21.7134 10.9456 21.2237 10.4807C20.7341 10.0154 20.0823 9.75928 19.3897 9.75928C18.6969 9.75928 18.0457 10.0156 17.5558 10.4807C17.0749 10.9373 16.7428 11.9629 16.527 12.9011C16.3303 12.1005 16.0389 11.2641 15.6291 10.8751C14.6997 9.99207 13.1858 9.99207 12.2559 10.8751C11.8054 11.3029 11.5571 11.8714 11.5571 12.4766C11.5571 13.0817 11.8056 13.6503 12.2559 14.078C12.3846 14.2003 12.5637 14.3104 12.7698 14.4111H8.79541V18.2105H9.70876V26.3082L14.3006 26.3084ZM14.3006 25.3467H10.7213V18.2105H14.3006V25.3467ZM22.5806 25.3467H19.0013V18.2105H22.5806V25.3467ZM23.4935 15.3728V17.2488L19.0013 17.249V15.3731L23.4935 15.3728ZM18.2709 11.1607C18.5696 10.8771 18.9665 10.7208 19.3891 10.7208C19.8117 10.7208 20.2087 10.8769 20.5073 11.1607C20.806 11.4441 20.9706 11.8212 20.9706 12.2223C20.9706 12.623 20.8062 13.0004 20.5073 13.2838C20.1048 13.666 18.5643 14.016 17.3038 14.2021C17.4995 13.0059 17.8681 11.5436 18.2709 11.1607ZM17.9884 15.3728V25.3467H15.3132V15.3728H17.9884ZM12.5694 12.4763C12.5694 12.1282 12.7121 11.8009 12.9715 11.555C13.239 11.301 13.5905 11.174 13.9422 11.174C14.2938 11.174 14.6451 11.301 14.9128 11.555C15.2602 11.8851 15.581 13.1444 15.7582 14.2011C14.6458 14.0331 13.3197 13.7285 12.9717 13.398C12.7121 13.1517 12.5694 12.8244 12.5694 12.4763ZM9.80797 15.3728H14.3004V17.2488L9.80797 17.249V15.3728Z" fill="#C0392B"/>
<path d="M16.6507 6.23224C16.8387 6.23224 17.0344 6.23796 17.2605 6.24986V3.69189H16.0405V6.24986C16.2669 6.23773 16.4624 6.23224 16.6507 6.23224Z" fill="#C0392B"/>
<path d="M10.5826 7.94808C10.9193 7.73911 11.2739 7.54456 11.6386 7.369L10.2923 5.15527L9.23633 5.73412L10.5826 7.94808Z" fill="#C0392B"/>
<path d="M5.02732 9.72949L4.41699 10.7329L6.7484 12.0108C6.93328 11.6643 7.13865 11.3278 7.35897 11.0076L5.02732 9.72949Z" fill="#C0392B"/>
<path d="M28.274 23.8116L28.8844 22.8081L26.553 21.5303C26.3676 21.877 26.1627 22.2139 25.9424 22.5335L28.274 23.8116Z" fill="#C0392B"/>
<path d="M2.87695 17.3498H5.57089C5.55836 17.1351 5.55233 16.9495 5.55233 16.7707C5.55233 16.5917 5.5586 16.4061 5.57089 16.1916L2.87695 16.1914V17.3498Z" fill="#C0392B"/>
<path d="M27.7495 16.7707C27.7495 16.9483 27.7432 17.1385 27.7305 17.3498H30.4244V16.1914H27.7305C27.7432 16.4024 27.7495 16.5929 27.7495 16.7707Z" fill="#C0392B"/>
<path d="M7.35922 22.5335C7.1389 22.2135 6.93401 21.8766 6.74888 21.5303L4.41748 22.8081L5.02781 23.8116L7.35922 22.5335Z" fill="#C0392B"/>
<path d="M28.8844 10.7329L28.274 9.72949L25.9424 11.008C26.1627 11.3278 26.3681 11.6644 26.553 12.0112L28.8844 10.7329Z" fill="#C0392B"/>
<path d="M21.6636 7.36852C22.0295 7.54476 22.3838 7.73931 22.7196 7.94759L24.0654 5.73363L23.0096 5.15479L21.6636 7.36852Z" fill="#C0392B"/>
</svg>
