<svg width="32" height="30" viewBox="0 0 32 30" fill="none" xmlns="http://www.w3.org/2000/svg">
<path d="M26.5968 27.9147C26.5968 28.1594 26.4946 28.3942 26.3123 28.5673C26.1301 28.7403 25.883 28.8373 25.6251 28.8373H6.19434C5.93666 28.8373 5.68934 28.7403 5.50709 28.5673C5.32484 28.3942 5.22266 28.1594 5.22266 27.9147C5.22266 25.2235 6.34859 22.6424 8.35294 20.7393C10.357 18.8362 13.0753 17.767 15.9097 17.767C18.744 17.767 21.4623 18.8361 23.4666 20.7393C25.4708 22.6423 26.5968 25.2233 26.5968 27.9147H26.5968ZM15.9101 4.8522C14.364 4.8522 12.8813 5.43539 11.7882 6.47337C10.695 7.51159 10.0808 8.91942 10.0808 10.3873C10.0808 11.8553 10.695 13.2632 11.7882 14.3011C12.8813 15.3391 14.364 15.9223 15.9101 15.9223C17.456 15.9223 18.9386 15.3391 20.0318 14.3011C21.1252 13.2632 21.7391 11.8553 21.7391 10.3873C21.7374 8.91989 21.1228 7.51294 20.0301 6.47519C18.9372 5.43743 17.4555 4.85378 15.9101 4.8522ZM7.16602 13.1549C7.68115 13.1542 8.17508 12.9597 8.53928 12.6139C8.9035 12.2678 9.10864 11.799 9.10912 11.3099V9.46491C9.10912 8.80573 8.73887 8.19665 8.13771 7.86706C7.53655 7.53747 6.7958 7.53747 6.19464 7.86706C5.59346 8.19665 5.22298 8.80573 5.22298 9.46491V11.3099C5.2237 11.799 5.42859 12.2678 5.79282 12.6139C6.15728 12.9597 6.65088 13.1542 7.16602 13.1549ZM15.9101 3.00708C18.5641 3.00983 21.0329 4.2989 22.4567 6.42567C23.0138 6.06747 23.6598 5.8537 24.3306 5.80563C23.1955 3.91669 21.3925 2.47013 19.2414 1.72259C17.0903 0.975283 14.7299 0.975283 12.5787 1.72259C10.4276 2.47013 8.62481 3.91663 7.48969 5.80563C8.16052 5.8537 8.80629 6.06748 9.36334 6.42567C10.7872 4.2989 13.256 3.00983 15.91 3.00708H15.9101ZM24.6542 7.61975C24.1391 7.62044 23.6451 7.81498 23.2809 8.16083C22.9167 8.50667 22.7118 8.97563 22.7111 9.46477V11.3098C22.712 11.9353 23.0473 12.5176 23.6015 12.8561C23.453 13.4645 23.0924 14.0074 22.578 14.3967C22.0636 14.7858 21.4258 14.9985 20.768 14.9998C20.4209 14.9998 20.1001 15.1756 19.9267 15.461C19.7532 15.7464 19.7532 16.098 19.9267 16.3834C20.1 16.6688 20.4209 16.8448 20.768 16.8448C21.925 16.8416 23.0428 16.4464 23.9197 15.7297C24.7966 15.0131 25.3752 14.0225 25.5507 12.9367C25.865 12.7822 26.1287 12.5487 26.3131 12.2619C26.4977 11.9751 26.5958 11.6458 26.5973 11.3098V9.46478C26.5965 8.97566 26.3916 8.50665 26.0274 8.16083C25.6632 7.815 25.1693 7.62044 24.6542 7.61975Z" fill="#C0392B"/>
</svg>
