<svg width="35" height="44" viewBox="0 0 35 44" fill="none" xmlns="http://www.w3.org/2000/svg">
<path d="M17.5002 39.0297C11.5528 39.0297 6.71387 35.808 6.71387 31.8484C6.71387 27.8887 11.5528 24.667 17.5002 24.667C23.4476 24.667 28.2865 27.8887 28.2865 31.8484C28.2865 35.808 23.4476 39.0297 17.5002 39.0297ZM17.5002 25.1459C11.9496 25.1459 7.43384 28.1524 7.43384 31.8479C7.43384 35.5434 11.9496 38.5499 17.5002 38.5499C23.0508 38.5499 27.5666 35.5434 27.5666 31.8479C27.5666 28.152 23.0513 25.1459 17.5002 25.1459Z" fill="#C0392B"/>
<path d="M35 43.5002H0V20.1978H35V43.5002ZM0.720115 43.0208H34.2813V20.6773H0.720115V43.0208Z" fill="#C0392B"/>
<path d="M7.36806 20.6765H2.66858C2.46989 20.6765 2.30859 20.5691 2.30859 20.4368V10.6139C2.30859 5.03672 9.12328 0.5 17.4996 0.5C25.8766 0.5 32.6907 5.0371 32.6907 10.6139V17.2629C32.6907 17.3952 32.5294 17.5026 32.3307 17.5026H27.6312C27.4325 17.5026 27.2712 17.3952 27.2712 17.2629V15.9252C27.2712 15.8843 27.2863 15.8446 27.3165 15.8093L28.8809 13.9301L27.6312 13.9286C27.4331 13.9286 27.2718 13.8209 27.2718 13.6889V10.614C27.2718 7.02632 22.8876 4.10752 17.499 4.10752C12.1103 4.10752 7.7263 7.02641 7.7263 10.614V20.4369C7.72685 20.5692 7.56675 20.6765 7.36806 20.6765ZM3.02864 20.1971H7.00815V10.614C7.00815 6.76208 11.7153 3.6284 17.5004 3.6284C23.2859 3.6284 27.9927 6.76237 27.9927 10.614V13.4496L29.493 13.4511C29.6202 13.4511 29.738 13.4961 29.8027 13.5689C29.8669 13.6421 29.8691 13.7328 29.8072 13.8067L27.9928 15.9869V17.0229H31.9723L31.9717 10.6141C31.9717 5.3014 25.4795 0.978617 17.4993 0.978617C9.51975 0.978617 3.02698 5.30102 3.02698 10.6141L3.02864 20.1971Z" fill="#C0392B"/>
</svg>
