<svg width="43" height="43" viewBox="0 0 43 43" fill="none" xmlns="http://www.w3.org/2000/svg">
<path d="M41.774 27.5256C41.002 26.9893 40.0609 26.9286 39.2482 27.3593L32.1993 30.9939C32.2062 30.9185 32.2062 30.8427 32.2062 30.7673V30.7445V30.7294C32.1927 29.0974 31.0076 27.7749 29.545 27.7749H24.798C22.4482 25.4705 19.5094 24.0572 16.9022 23.9896C14.1324 23.9142 11.6541 23.9517 10.618 23.9745V22.4407C10.618 21.3677 9.83246 20.4912 8.8709 20.4912H1.74712C0.785519 20.4912 0 21.3678 0 22.4407V38.2553C0 39.3283 0.785563 40.2048 1.74712 40.2048H8.86398C9.82558 40.2048 10.6111 39.3282 10.6111 38.2553L10.6114 37.1367C12.9477 38.6477 19.9631 42.9998 23.2134 42.9998C23.281 42.9998 23.3555 42.9998 23.4234 42.9921C29.0575 42.6372 41.1918 32.9275 41.6593 32.5424C42.4854 32.0286 43 31.0538 43 30.0037C43 28.9914 42.5395 28.0619 41.774 27.5256ZM9.60283 38.2623C9.60283 38.7158 9.27086 39.0785 8.87132 39.0785L1.74755 39.0781C1.34108 39.0781 1.01604 38.7077 1.01604 38.2619L1.01639 22.4404C1.01639 21.9869 1.34836 21.6242 1.74789 21.6242H8.86475C9.27121 21.6242 9.59625 21.9946 9.59625 22.4404L9.59591 38.2629L9.60283 38.2623ZM41.1176 31.5902C40.9956 31.6884 28.7125 41.5183 23.3696 41.8588C20.2748 42.0478 12.1355 36.8191 10.6185 35.8216V25.1076C11.6411 25.0848 14.1129 25.0473 16.8822 25.1227C19.3064 25.183 22.0693 26.5506 24.27 28.7646C24.3649 28.8554 24.4865 28.908 24.6085 28.908H29.545C30.4525 28.908 31.1972 29.7316 31.1972 30.7516C31.1972 30.9101 31.1702 31.069 31.1362 31.2202C31.1293 31.2581 31.1158 31.2956 31.1023 31.3335C31.0617 31.4696 31.0073 31.6057 30.9397 31.7263C30.6487 32.2402 30.1341 32.5878 29.5516 32.5878H20.0039C19.7263 32.5878 19.4959 32.8445 19.4959 33.1546C19.4959 33.4644 19.726 33.7215 20.0039 33.7215H29.5445C30.4181 33.7215 31.1902 33.2455 31.6777 32.5124L39.6816 28.3868C40.1827 28.1146 40.7652 28.1525 41.2323 28.485C41.7063 28.8175 41.9839 29.3839 41.9839 30.0038C41.9839 30.646 41.6724 31.2427 41.1172 31.5902L41.1176 31.5902Z" fill="#C0392B"/>
<path d="M6.66988 34.0923C5.64068 34.0923 4.80078 35.0291 4.80078 36.1779C4.80078 37.3263 5.64039 38.2634 6.66988 38.2634C7.69908 38.2634 8.53898 37.3266 8.53898 36.1779C8.53898 35.0292 7.69937 34.0923 6.66988 34.0923ZM6.66988 37.1221C6.20277 37.1221 5.81675 36.6991 5.81675 36.1701C5.81675 35.6412 6.19584 35.2182 6.66988 35.2182C7.14392 35.2182 7.52301 35.6412 7.52301 36.1701C7.52336 36.6991 7.13733 37.1221 6.66988 37.1221Z" fill="#C0392B"/>
<path d="M29.6127 23.9752C34.6712 23.9752 39.086 19.9856 40.1221 14.4774C40.3795 13.0495 40.4267 11.7651 40.2846 10.5784C39.655 4.54888 35.0705 0 29.6129 0C23.6878 0 18.8667 5.37995 18.8667 11.9839C18.8667 18.5957 23.6882 23.9748 29.6129 23.9748L29.6127 23.9752ZM29.6127 1.12584C34.5492 1.12584 38.7072 5.24375 39.2758 10.7067C39.4044 11.7797 39.3572 12.9432 39.1268 14.2431C38.1922 19.2298 34.1903 22.8415 29.6128 22.8415C24.2497 22.8415 19.8823 17.9682 19.8823 11.984C19.8819 5.99978 24.2428 1.12554 29.6128 1.12554L29.6127 1.12584Z" fill="#C0392B"/>
<path d="M29.6129 20.0762C33.6083 20.0762 36.8587 16.4493 36.8587 11.9912C36.8587 7.5331 33.6083 3.90625 29.6129 3.90625C25.6176 3.90625 22.3672 7.5331 22.3672 11.9912C22.3672 16.4493 25.6176 20.0762 29.6129 20.0762ZM29.6129 5.03268C33.0462 5.03268 35.8427 8.15333 35.8427 11.984C35.8427 15.8149 33.046 18.9353 29.6129 18.9353C26.1796 18.9353 23.3832 15.8147 23.3832 11.984C23.3828 8.15343 26.1795 5.03268 29.6129 5.03268Z" fill="#C0392B"/>
<path d="M29.6128 12.5507C30.1748 12.5507 30.6353 13.0645 30.6353 13.6916C30.6353 14.3188 30.1748 14.8326 29.6128 14.8326C29.0507 14.8326 28.5902 14.3188 28.5902 13.6916C28.5902 13.3819 28.3601 13.1248 28.0822 13.1248C27.8047 13.1248 27.5742 13.3815 27.5742 13.6916C27.5742 14.7496 28.2312 15.6411 29.1114 15.8906L29.1183 16.4118C29.1252 16.7215 29.3484 16.9709 29.6263 16.9709H29.6332C29.9108 16.9631 30.1412 16.7064 30.1343 16.3967L30.1274 15.8828C31.0009 15.6261 31.651 14.7418 31.651 13.6916C31.651 12.4373 30.7369 11.4173 29.6128 11.4173C29.0507 11.4173 28.5902 10.9034 28.5902 10.2763C28.5902 9.64917 29.0507 9.13531 29.6128 9.13531C30.1748 9.13531 30.6353 9.64917 30.6353 10.2763C30.6353 10.586 30.8654 10.8431 31.1433 10.8431C31.4209 10.8431 31.6513 10.5864 31.6513 10.2763C31.6513 9.21836 30.9943 8.32681 30.1142 8.07738L30.1072 7.55617C30.1003 7.24646 29.8567 7.02722 29.5927 6.99707C29.3151 7.0048 29.0846 7.26155 29.0916 7.57125L29.0985 8.08512C28.2249 8.34186 27.5749 9.2261 27.5749 10.2763C27.5745 11.5306 28.4887 12.5507 29.6128 12.5507Z" fill="#C0392B"/>
<path d="M32.9846 12.558H34.1696C34.4472 12.558 34.6776 12.3012 34.6776 11.9912C34.6776 11.6814 34.4475 11.4243 34.1696 11.4243H32.9846C32.707 11.4243 32.4766 11.6811 32.4766 11.9912C32.4769 12.3009 32.7004 12.558 32.9846 12.558Z" fill="#C0392B"/>
<path d="M26.7489 11.9912C26.7489 11.6814 26.5188 11.4243 26.2409 11.4243H25.0559C24.7783 11.4243 24.5479 11.6811 24.5479 11.9912C24.5479 12.3009 24.7779 12.558 25.0559 12.558H26.2413C26.5258 12.558 26.7489 12.3009 26.7489 11.9912Z" fill="#C0392B"/>
</svg>
