<svg width="26" height="27" viewBox="0 0 26 27" fill="none" xmlns="http://www.w3.org/2000/svg">
<path d="M21.9207 9.14697L21.1802 9.92386V5.5181C21.1802 5.51532 21.1787 5.51279 21.1787 5.51001C21.1782 5.46377 21.1647 5.41979 21.1529 5.37531C21.1466 5.35131 21.1466 5.32528 21.1375 5.30304C21.1281 5.28029 21.1095 5.26184 21.097 5.24061C21.0741 5.20144 21.0529 5.16126 21.0218 5.12916C21.0196 5.12688 21.0191 5.12436 21.0172 5.12208C19.2322 3.36135 17.2725 1.35677 16.9953 0.962501C16.9953 0.961995 16.9948 0.961995 16.9948 0.96149C16.9939 0.959215 16.9922 0.957699 16.9917 0.956182C16.9683 0.899572 16.9341 0.850292 16.8953 0.806317C16.8825 0.79166 16.869 0.780792 16.8562 0.768409C16.8229 0.738082 16.7868 0.712557 16.7468 0.691329C16.7306 0.682737 16.7162 0.673891 16.6991 0.66732C16.6417 0.644575 16.5814 0.628906 16.5168 0.628906H0.971864C0.685741 0.628906 0.453613 0.872277 0.453613 1.17226V26.1616C0.453613 26.4616 0.685741 26.7049 0.971864 26.7049H20.6618C20.9479 26.7049 21.18 26.4616 21.18 26.1616V16.0701L24.8517 12.2196C25.6599 11.3727 25.6594 9.99386 24.8517 9.14698C24.0687 8.32513 22.7035 8.32564 21.9205 9.14698L21.9207 9.14697ZM20.2967 15.4608C20.2963 15.4613 20.2958 15.4618 20.2953 15.4623L16.3806 19.5675L14.9148 18.0307L21.0184 11.6297C21.0242 11.6244 21.0292 11.6183 21.035 11.6123L21.4578 11.169L22.9497 12.6782L20.2967 15.4608ZM14.2515 19.3108L14.3713 18.9974L15.4584 20.1372L13.6464 20.8971L14.2515 19.3108ZM19.3598 4.97452H17.0348V2.60116C17.5312 3.1329 18.2733 3.89284 19.3598 4.97452ZM20.1439 25.6181H1.49006V1.71507H15.9983V5.51778C15.9983 5.81776 16.2304 6.06113 16.5166 6.06113H20.1436V11.0102L13.8154 17.6462C13.7645 17.6995 13.7267 17.7615 13.7014 17.8272C13.7014 17.8277 13.7009 17.8277 13.7009 17.8282L13.4232 18.5558H7.70798C7.42185 18.5558 7.18972 18.7991 7.18972 19.0991C7.18972 19.3991 7.42185 19.6425 7.70798 19.6425H13.0086L12.2351 21.6698C12.1584 21.872 12.2035 22.1022 12.3501 22.2559C12.4491 22.3598 12.5817 22.4151 12.7165 22.4151C12.7813 22.4151 12.8466 22.4027 12.9093 22.3764L16.5732 20.8396C16.5737 20.8396 16.5737 20.8391 16.5742 20.8391C16.6369 20.8126 16.6959 20.7729 16.7468 20.7196L20.1439 17.1569L20.1439 25.6181ZM24.119 11.4514L23.6822 11.9098L22.1904 10.4005L22.6532 9.91531C23.0444 9.50463 23.7268 9.50463 24.119 9.91531C24.5232 10.3386 24.5233 11.0275 24.119 11.4514Z" fill="#C0392B"/>
<path d="M7.70868 8.77762H14.9625C15.2486 8.77762 15.4807 8.53425 15.4807 8.23427C15.4807 7.93429 15.2486 7.69092 14.9625 7.69092H7.70868C7.42256 7.69092 7.19043 7.93429 7.19043 8.23427C7.19043 8.53425 7.42256 8.77762 7.70868 8.77762Z" fill="#C0392B"/>
<path d="M7.70868 14.2098H15.9992C16.2853 14.2098 16.5175 13.9664 16.5175 13.6664C16.5175 13.3664 16.2853 13.123 15.9992 13.123H7.70868C7.42256 13.123 7.19043 13.3664 7.19043 13.6664C7.19043 13.9664 7.42256 14.2098 7.70868 14.2098Z" fill="#C0392B"/>
<path d="M5.63571 6.60449H3.56317C3.27705 6.60449 3.04492 6.84786 3.04492 7.14785V9.32077C3.04492 9.62075 3.27705 9.86412 3.56317 9.86412H5.63571C5.92183 9.86412 6.15396 9.62075 6.15396 9.32077V7.14785C6.15396 6.84786 5.92183 6.60449 5.63571 6.60449ZM5.1177 8.77741H4.08143V7.69095H5.1177V8.77741Z" fill="#C0392B"/>
<path d="M5.63571 12.0371H3.56317C3.27705 12.0371 3.04492 12.2805 3.04492 12.5805V14.7534C3.04492 15.0534 3.27705 15.2967 3.56317 15.2967H5.63571C5.92183 15.2967 6.15396 15.0534 6.15396 14.7534V12.5805C6.15396 12.2805 5.92183 12.0371 5.63571 12.0371ZM5.1177 14.21H4.08143V13.1236H5.1177V14.21Z" fill="#C0392B"/>
<path d="M5.63571 17.4697H3.56317C3.27705 17.4697 3.04492 17.7131 3.04492 18.0131V20.186C3.04492 20.486 3.27705 20.7294 3.56317 20.7294H5.63571C5.92183 20.7294 6.15396 20.486 6.15396 20.186V18.0131C6.15396 17.7131 5.92183 17.4697 5.63571 17.4697ZM5.1177 19.6426H4.08143V18.5562H5.1177V19.6426Z" fill="#C0392B"/>
</svg>
