<svg width="22" height="21" viewBox="0 0 22 21" fill="none" xmlns="http://www.w3.org/2000/svg">
<g clip-path="url(#clip0_252_3503)">
<path d="M10.7388 5.02386C9.87348 5.02386 9.02762 5.24255 8.30815 5.65226C7.58869 6.06198 7.02793 6.64432 6.6968 7.32565C6.36567 8.00698 6.27903 8.75669 6.44784 9.47999C6.61665 10.2033 7.03333 10.8677 7.64518 11.3891C8.25703 11.9106 9.03659 12.2657 9.88525 12.4096C10.7339 12.5535 11.6136 12.4796 12.413 12.1974C13.2124 11.9152 13.8957 11.4373 14.3765 10.8241C14.8572 10.2109 15.1138 9.49002 15.1138 8.75256C15.1138 7.76365 14.6528 6.81524 13.8324 6.11597C13.0119 5.41671 11.8991 5.02386 10.7388 5.02386ZM10.7388 10.9898C10.2196 10.9898 9.71208 10.8586 9.2804 10.6127C8.84872 10.3669 8.51227 10.0175 8.31359 9.6087C8.11491 9.19991 8.06292 8.75008 8.16421 8.3161C8.2655 7.88212 8.5155 7.48349 8.88262 7.17061C9.24973 6.85773 9.71746 6.64465 10.2267 6.55833C10.7359 6.47201 11.2637 6.51631 11.7433 6.68564C12.223 6.85497 12.6329 7.14172 12.9214 7.50963C13.2098 7.87754 13.3638 8.31008 13.3638 8.75256C13.3631 9.34572 13.0863 9.91442 12.5942 10.3339C12.102 10.7533 11.4348 10.9892 10.7388 10.9898Z" fill="black"/>
<path d="M11 0C8.82441 0 6.69767 0.615814 4.88873 1.76957C3.07979 2.92332 1.66989 4.5632 0.83733 6.48182C0.00476609 8.40045 -0.213071 10.5116 0.211367 12.5484C0.635804 14.5852 1.68345 16.4562 3.22183 17.9246C4.76021 19.3931 6.72022 20.3931 8.85401 20.7982C10.9878 21.2034 13.1995 20.9955 15.2095 20.2007C17.2195 19.406 18.9375 18.0602 20.1462 16.3335C21.3549 14.6068 22 12.5767 22 10.5C21.9967 7.7162 20.8367 5.04733 18.7745 3.07889C16.7123 1.11044 13.9164 0.00317604 11 0ZM6.28572 18.2827V17.25C6.28634 16.6534 6.53488 16.0815 6.9768 15.6597C7.41871 15.2378 8.0179 15.0006 8.64286 15H13.3571C13.9821 15.0006 14.5813 15.2378 15.0232 15.6597C15.4651 16.0815 15.7137 16.6534 15.7143 17.25V18.2827C14.2836 19.0801 12.6567 19.5002 11 19.5002C9.34333 19.5002 7.7164 19.0801 6.28572 18.2827ZM17.2802 17.1945C17.265 16.2105 16.8451 15.2716 16.1112 14.5805C15.3772 13.8893 14.3881 13.5013 13.3571 13.5H8.64286C7.61202 13.5015 6.62309 13.8896 5.88934 14.5808C5.1556 15.2719 4.73583 16.2106 4.72058 17.1945C3.29573 15.9801 2.29094 14.3812 1.83923 12.6095C1.38753 10.8378 1.51023 8.97701 2.19108 7.27339C2.87193 5.56978 4.07882 4.10375 5.65194 3.06942C7.22506 2.0351 9.0902 1.48127 11.0004 1.48127C12.9106 1.48127 14.7757 2.0351 16.3489 3.06942C17.922 4.10375 19.1289 5.56978 19.8097 7.27339C20.4906 8.97701 20.6133 10.8378 20.1616 12.6095C19.7099 14.3812 18.7051 15.9801 17.2802 17.1945Z" fill="black"/>
</g>
<defs>
<clipPath id="clip0_252_3503">
<rect width="22" height="21" fill="white"/>
</clipPath>
</defs>
</svg>
