<svg id="Layer_x0020_1" xmlns="http://www.w3.org/2000/svg" width="29.374" height="39.802" viewBox="0 0 29.374 39.802">
  <path id="Path_37" data-name="Path 37" d="M1.427,22.709c11.987-1.518,19.471-7.644,22-17.66H20.019L24.6,0,28.58,4.979l-3.482,0C22.953,17.053,14.677,22.939,1.427,22.709Zm24.19-9.668h2.818a.941.941,0,0,1,.939.939V38.863a.941.941,0,0,1-.939.939H25.618a.941.941,0,0,1-.939-.939V13.98a.941.941,0,0,1,.939-.939ZM.939,31.241H3.757a.941.941,0,0,1,.939.939v6.683a.941.941,0,0,1-.939.939H.939A.941.941,0,0,1,0,38.863V32.18a.941.941,0,0,1,.939-.939Zm8.28-4.7h2.818a.941.941,0,0,1,.939.939V38.863a.941.941,0,0,1-.939.939H9.219a.941.941,0,0,1-.939-.939V27.478A.941.941,0,0,1,9.219,26.539Zm8.2-4h2.818a.941.941,0,0,1,.939.939V38.863a.941.941,0,0,1-.939.939H17.418a.941.941,0,0,1-.939-.939V23.475a.941.941,0,0,1,.939-.939Z" transform="translate(0 0)" fill="#72706f" fill-rule="evenodd"/>
</svg>
