<svg xmlns="http://www.w3.org/2000/svg" width="42.136" height="42.136" viewBox="0 0 42.136 42.136">
  <g id="Group_83" data-name="Group 83" transform="translate(-1528.979 -852.151)">
    <path id="Path_54" data-name="Path 54" d="M19.569-457.565A19.577,19.577,0,0,1,39.137-438a19.577,19.577,0,0,1-19.568,19.568A19.577,19.577,0,0,1,0-438,19.577,19.577,0,0,1,19.569-457.565Z" transform="translate(1530.479 1311.216)" fill="#fff" stroke="#72706f" stroke-width="3" fill-rule="evenodd"/>
    <path id="Path_55" data-name="Path 55" d="M54.457-398.942a6.48,6.48,0,0,0,4.28,1.817.642.642,0,0,1,.613.669.642.642,0,0,1-.669.613,7.724,7.724,0,0,1-5.416-2.49.642.642,0,0,1-.148-.573,5.962,5.962,0,0,1,5.926-4.4,5.962,5.962,0,0,1,5.926,4.4.642.642,0,0,1-.148.573,7.441,7.441,0,0,1-2.51,1.812.642.642,0,0,1-.847-.325.642.642,0,0,1,.325-.847,6.2,6.2,0,0,0,1.84-1.248,4.729,4.729,0,0,0-4.587-3.079A4.729,4.729,0,0,0,54.457-398.942Zm4.587-12.227a3.4,3.4,0,0,0-3.4,3.4,3.4,3.4,0,0,0,3.4,3.4,3.4,3.4,0,0,0,3.4-3.4A3.4,3.4,0,0,0,59.043-411.169Zm0,1.283a2.116,2.116,0,0,1,2.115,2.115,2.116,2.116,0,0,1-2.115,2.115,2.116,2.116,0,0,1-2.115-2.115A2.116,2.116,0,0,1,59.043-409.886Z" transform="translate(1491.004 1276.725)" stroke="#72706f" stroke-width="1" fill-rule="evenodd"/>
  </g>
</svg>
